<svg width="831" height="69" viewBox="0 0 831 69" version="1.1" xmlns="http://www.w3.org/2000/svg" xmlns:xlink="http://www.w3.org/1999/xlink" xmlns:figma="http://www.figma.com/figma/ns">
<title>&#208;&#161;&#208;&#186;&#208;&#184;&#208;&#180;&#208;&#186;&#208;&#176; &#208;&#189;&#208;&#176; &#209;&#132;&#209;&#131;&#209;&#130;&#208;&#177;&#208;&#190;&#208;&#187;&#208;&#186;&#208;&#184;</title>
<desc>Created using Figma</desc>
<g id="Canvas" transform="translate(-2604 -356)" figma:type="canvas">
<g id="&#208;&#161;&#208;&#186;&#208;&#184;&#208;&#180;&#208;&#186;&#208;&#176; &#208;&#189;&#208;&#176; &#209;&#132;&#209;&#131;&#209;&#130;&#208;&#177;&#208;&#190;&#208;&#187;&#208;&#186;&#208;&#184;" filter="url(#filter0_d)" figma:type="text">
<use xlink:href="#path0_fill" transform="translate(2590 354)" fill="#FFFFFF"/>
</g>
</g>
<defs>
<filter id="filter0_d" filterUnits="userSpaceOnUse" x="2604" y="356" width="831" height="69" color-interpolation-filters="sRGB">
<feFlood flood-opacity="0" result="BackgroundImageFix"/>
<desc>type="dropShadow" x="0" y="4" size="4" spread="0" color="0,0,0,0.25" blend="normal"</desc>
<feColorMatrix in="SourceAlpha" type="matrix" values="0 0 0 0 0 0 0 0 0 0 0 0 0 0 0 0 0 0 255 0"/>
<feOffset dx="0" dy="4"/>
<feGaussianBlur stdDeviation="2"/>
<feColorMatrix type="matrix" values="0 0 0 0 0 0 0 0 0 0 0 0 0 0 0 0 0 0 0.25 0"/>
<feBlend mode="normal" in2="BackgroundImageFix" result="effect1_dropShadow"/>
<feBlend mode="normal" in="SourceGraphic" in2="effect1_dropShadow" result="shape"/>
</filter>
<path id="path0_fill" d="M 18.467 29.88C 18.467 46.88 31.455 54.02 44.511 54.02C 49.543 54.02 54.235 53 58.383 51.028L 58.383 38.788C 55.663 41.44 51.175 42.936 46.279 42.936C 38.867 42.936 31.387 39.128 31.387 29.88C 31.387 19.544 38.867 15.396 46.415 15.396C 50.767 15.396 55.119 16.824 58.043 19.272L 58.043 7.372C 53.895 5.4 49.067 4.38 44.239 4.38C 31.387 4.38 18.467 11.928 18.467 29.88ZM 77.9176 53L 77.9176 34.64L 83.8336 34.64L 95.3936 53L 109.334 53L 93.6936 28.588L 108.654 5.4L 94.7136 5.4L 83.9016 23.42L 77.9176 23.42L 77.9176 5.4L 65.3376 5.4L 65.3376 53L 77.9176 53ZM 156.189 53L 156.189 5.4L 144.289 5.4L 125.657 32.736C 125.861 30.492 125.929 27.5 125.929 24.848L 125.929 5.4L 113.349 5.4L 113.349 53L 125.249 53L 143.881 25.732C 143.677 27.976 143.609 30.968 143.609 33.552L 143.609 53L 156.189 53ZM 172.966 62.86L 172.966 53L 204.246 53L 204.246 62.86L 215.126 62.86L 215.126 42.12L 209.006 42.12L 209.006 5.4L 175.006 5.4C 175.006 17.98 173.646 31.24 167.526 42.12L 162.086 42.12L 162.086 62.86L 172.966 62.86ZM 186.566 16.62L 196.426 16.62L 196.426 42.12L 180.786 42.12C 184.526 35.184 185.886 25.936 186.566 16.62ZM 234.105 53L 234.105 34.64L 240.021 34.64L 251.581 53L 265.521 53L 249.881 28.588L 264.841 5.4L 250.901 5.4L 240.089 23.42L 234.105 23.42L 234.105 5.4L 221.525 5.4L 221.525 53L 234.105 53ZM 278.037 53L 280.757 45.52L 300.477 45.52L 303.197 53L 316.117 53L 297.417 5.4L 283.817 5.4L 265.117 53L 278.037 53ZM 289.393 21.584C 289.801 20.428 290.209 19.272 290.617 16.756C 291.025 19.272 291.433 20.428 291.841 21.584L 296.737 35.32L 284.497 35.32L 289.393 21.584ZM 365.074 5.4L 365.074 23.624L 347.394 23.624L 347.394 5.4L 334.814 5.4L 334.814 53L 347.394 53L 347.394 34.844L 365.074 34.844L 365.074 53L 377.654 53L 377.654 5.4L 365.074 5.4ZM 395.111 53L 397.831 45.52L 417.551 45.52L 420.271 53L 433.191 53L 414.491 5.4L 400.891 5.4L 382.191 53L 395.111 53ZM 406.467 21.584C 406.875 20.428 407.283 19.272 407.691 16.756C 408.099 19.272 408.507 20.428 408.915 21.584L 413.811 35.32L 401.571 35.32L 406.467 21.584ZM 483.576 55.72L 483.576 49.872C 497.448 48.988 506.356 41.576 506.356 29.2C 506.356 16.824 497.448 9.412 483.576 8.528L 483.576 2.68L 471.676 2.68L 471.676 8.528C 457.6 9.276 448.556 16.756 448.556 29.2C 448.556 41.644 457.6 49.124 471.676 49.872L 471.676 55.72L 483.576 55.72ZM 461.136 29.2C 461.136 24.712 463.176 19.612 471.676 18.796L 471.676 39.604C 463.176 38.788 461.136 33.688 461.136 29.2ZM 483.576 18.796C 491.736 19.748 493.776 24.78 493.776 29.2C 493.776 33.62 491.736 38.652 483.576 39.604L 483.576 18.796ZM 534.953 42.12L 552.157 5.4L 538.217 5.4L 529.649 27.092L 519.177 5.4L 505.237 5.4L 523.801 38.38L 523.053 40.012C 521.965 42.46 519.857 43.276 516.865 43.276C 515.029 43.276 512.989 42.936 511.357 42.324L 511.357 52.728C 513.941 53.476 516.525 54.02 518.973 54.02C 525.433 54.02 530.669 51.3 534.953 42.12ZM 552.808 5.4L 552.808 16.62L 566.272 16.62L 566.272 53L 578.852 53L 578.852 16.62L 592.248 16.62L 592.248 5.4L 552.808 5.4ZM 610.23 22.264L 610.23 16.62L 633.758 16.62L 633.758 5.4L 597.65 5.4L 597.65 53L 619.614 53C 629.27 53 637.77 49.532 637.77 37.632C 637.77 25.732 629.27 22.264 619.614 22.264L 610.23 22.264ZM 610.23 42.12L 610.23 33.144L 619.478 33.144C 622.402 33.144 624.85 33.96 624.85 37.632C 624.85 41.304 622.402 42.12 619.478 42.12L 610.23 42.12ZM 641.489 29.2C 641.489 42.46 649.989 54.02 666.989 54.02C 683.989 54.02 692.489 42.46 692.489 29.2C 692.489 15.94 683.989 4.38 666.989 4.38C 649.989 4.38 641.489 15.94 641.489 29.2ZM 679.569 29.2C 679.569 36.816 675.217 42.46 666.989 42.46C 658.761 42.46 654.409 36.816 654.409 29.2C 654.409 21.584 658.761 15.94 666.989 15.94C 675.217 15.94 679.569 21.584 679.569 29.2ZM 706.079 5.4C 704.991 19.816 705.127 41.168 697.443 41.984C 696.151 42.12 695.063 41.984 694.179 41.712L 694.179 52.66C 696.287 53.34 698.259 53.612 700.027 53.612C 713.695 53.544 716.075 36.136 717.571 16.62L 727.839 16.62L 727.839 53L 740.419 53L 740.419 5.4L 706.079 5.4ZM 761.968 53L 761.968 34.64L 767.884 34.64L 779.444 53L 793.384 53L 777.744 28.588L 792.704 5.4L 778.764 5.4L 767.952 23.42L 761.968 23.42L 761.968 5.4L 749.388 5.4L 749.388 53L 761.968 53ZM 840.24 53L 840.24 5.4L 828.34 5.4L 809.708 32.736C 809.912 30.492 809.98 27.5 809.98 24.848L 809.98 5.4L 797.4 5.4L 797.4 53L 809.3 53L 827.932 25.732C 827.728 27.976 827.66 30.968 827.66 33.552L 827.66 53L 840.24 53Z"/>
</defs>
</svg>
