<svg width="156" height="53" viewBox="0 0 156 53" version="1.1" xmlns="http://www.w3.org/2000/svg" xmlns:xlink="http://www.w3.org/1999/xlink" xmlns:figma="http://www.figma.com/figma/ns">
<title>&#208;&#161;&#208;&#186;&#208;&#184;&#208;&#180;&#208;&#186;&#208;&#176; &#208;&#189;&#208;&#176; &#209;&#132;&#209;&#131;&#209;&#130;&#208;&#177;&#208;&#190;&#208;&#187;&#208;&#186;&#208;&#184;</title>
<desc>Created using Figma</desc>
<g id="Canvas" transform="translate(-4792 -428)" figma:type="canvas">
<g id="&#208;&#161;&#208;&#186;&#208;&#184;&#208;&#180;&#208;&#186;&#208;&#176; &#208;&#189;&#208;&#176; &#209;&#132;&#209;&#131;&#209;&#130;&#208;&#177;&#208;&#190;&#208;&#187;&#208;&#186;&#208;&#184;" filter="url(#filter0_d)" figma:type="text">
<use xlink:href="#path0_fill" transform="translate(4796 416)" fill="#FFFFFF"/>
</g>
</g>
<defs>
<filter id="filter0_d" filterUnits="userSpaceOnUse" x="4792" y="428" width="156" height="53" color-interpolation-filters="sRGB">
<feFlood flood-opacity="0" result="BackgroundImageFix"/>
<desc>type="dropShadow" x="0" y="4" size="4" spread="0" color="0,0,0,0.25" blend="normal"</desc>
<feColorMatrix in="SourceAlpha" type="matrix" values="0 0 0 0 0 0 0 0 0 0 0 0 0 0 0 0 0 0 255 0"/>
<feOffset dx="0" dy="4"/>
<feGaussianBlur stdDeviation="2"/>
<feColorMatrix type="matrix" values="0 0 0 0 0 0 0 0 0 0 0 0 0 0 0 0 0 0 0.25 0"/>
<feBlend mode="normal" in2="BackgroundImageFix" result="effect1_dropShadow"/>
<feBlend mode="normal" in="SourceGraphic" in2="effect1_dropShadow" result="shape"/>
</filter>
<path id="path0_fill" d="M 0.768 21.84C 0.768 27.84 5.352 30.36 9.96 30.36C 11.736 30.36 13.392 30 14.856 29.304L 14.856 24.984C 13.896 25.92 12.312 26.448 10.584 26.448C 7.968 26.448 5.328 25.104 5.328 21.84C 5.328 18.192 7.968 16.728 10.632 16.728C 12.168 16.728 13.704 17.232 14.736 18.096L 14.736 13.896C 13.272 13.2 11.568 12.84 9.864 12.84C 5.328 12.84 0.768 15.504 0.768 21.84ZM 21.7506 30L 21.7506 23.52L 23.8386 23.52L 27.9186 30L 32.8386 30L 27.3186 21.384L 32.5986 13.2L 27.6786 13.2L 23.8626 19.56L 21.7506 19.56L 21.7506 13.2L 17.3106 13.2L 17.3106 30L 21.7506 30ZM 49.3759 30L 49.3759 13.2L 45.1759 13.2L 38.5999 22.848C 38.6719 22.056 38.6959 21 38.6959 20.064L 38.6959 13.2L 34.2559 13.2L 34.2559 30L 38.4559 30L 45.0319 20.376C 44.9599 21.168 44.9359 22.224 44.9359 23.136L 44.9359 30L 49.3759 30ZM 55.2971 33.48L 55.2971 30L 66.3371 30L 66.3371 33.48L 70.1771 33.48L 70.1771 26.16L 68.0171 26.16L 68.0171 13.2L 56.0171 13.2C 56.0171 17.64 55.5371 22.32 53.3771 26.16L 51.4571 26.16L 51.4571 33.48L 55.2971 33.48ZM 60.0971 17.16L 63.5771 17.16L 63.5771 26.16L 58.0571 26.16C 59.3771 23.712 59.8571 20.448 60.0971 17.16ZM 76.8756 30L 76.8756 23.52L 78.9636 23.52L 83.0436 30L 87.9636 30L 82.4436 21.384L 87.7236 13.2L 82.8036 13.2L 78.9876 19.56L 76.8756 19.56L 76.8756 13.2L 72.4356 13.2L 72.4356 30L 76.8756 30ZM 92.3809 30L 93.3409 27.36L 100.301 27.36L 101.261 30L 105.821 30L 99.2209 13.2L 94.4209 13.2L 87.8209 30L 92.3809 30ZM 96.3889 18.912C 96.5329 18.504 96.6769 18.096 96.8209 17.208C 96.9649 18.096 97.1089 18.504 97.2529 18.912L 98.9809 23.76L 94.6609 23.76L 96.3889 18.912ZM 123.1 13.2L 123.1 19.632L 116.86 19.632L 116.86 13.2L 112.42 13.2L 112.42 30L 116.86 30L 116.86 23.592L 123.1 23.592L 123.1 30L 127.54 30L 127.54 13.2L 123.1 13.2ZM 133.701 30L 134.661 27.36L 141.621 27.36L 142.581 30L 147.141 30L 140.541 13.2L 135.741 13.2L 129.141 30L 133.701 30ZM 137.709 18.912C 137.853 18.504 137.997 18.096 138.141 17.208C 138.285 18.096 138.429 18.504 138.573 18.912L 140.301 23.76L 135.981 23.76L 137.709 18.912ZM 12.768 56.96L 12.768 54.896C 17.664 54.584 20.808 51.968 20.808 47.6C 20.808 43.232 17.664 40.616 12.768 40.304L 12.768 38.24L 8.568 38.24L 8.568 40.304C 3.6 40.568 0.408 43.208 0.408 47.6C 0.408 51.992 3.6 54.632 8.568 54.896L 8.568 56.96L 12.768 56.96ZM 4.848 47.6C 4.848 46.016 5.568 44.216 8.568 43.928L 8.568 51.272C 5.568 50.984 4.848 49.184 4.848 47.6ZM 12.768 43.928C 15.648 44.264 16.368 46.04 16.368 47.6C 16.368 49.16 15.648 50.936 12.768 51.272L 12.768 43.928ZM 30.9009 52.16L 36.9729 39.2L 32.0529 39.2L 29.0289 46.856L 25.3329 39.2L 20.4129 39.2L 26.9649 50.84L 26.7009 51.416C 26.3169 52.28 25.5729 52.568 24.5169 52.568C 23.8689 52.568 23.1489 52.448 22.5729 52.232L 22.5729 55.904C 23.4849 56.168 24.3969 56.36 25.2609 56.36C 27.5409 56.36 29.3889 55.4 30.9009 52.16ZM 37.2026 39.2L 37.2026 43.16L 41.9546 43.16L 41.9546 56L 46.3946 56L 46.3946 43.16L 51.1226 43.16L 51.1226 39.2L 37.2026 39.2ZM 57.4693 45.152L 57.4693 43.16L 65.7733 43.16L 65.7733 39.2L 53.0293 39.2L 53.0293 56L 60.7813 56C 64.1893 56 67.1893 54.776 67.1893 50.576C 67.1893 46.376 64.1893 45.152 60.7813 45.152L 57.4693 45.152ZM 57.4693 52.16L 57.4693 48.992L 60.7333 48.992C 61.7653 48.992 62.6293 49.28 62.6293 50.576C 62.6293 51.872 61.7653 52.16 60.7333 52.16L 57.4693 52.16ZM 68.5018 47.6C 68.5018 52.28 71.5018 56.36 77.5018 56.36C 83.5018 56.36 86.5018 52.28 86.5018 47.6C 86.5018 42.92 83.5018 38.84 77.5018 38.84C 71.5018 38.84 68.5018 42.92 68.5018 47.6ZM 81.9418 47.6C 81.9418 50.288 80.4058 52.28 77.5018 52.28C 74.5978 52.28 73.0618 50.288 73.0618 47.6C 73.0618 44.912 74.5978 42.92 77.5018 42.92C 80.4058 42.92 81.9418 44.912 81.9418 47.6ZM 91.2982 39.2C 90.9142 44.288 90.9622 51.824 88.2503 52.112C 87.7943 52.16 87.4102 52.112 87.0983 52.016L 87.0983 55.88C 87.8423 56.12 88.5383 56.216 89.1622 56.216C 93.9862 56.192 94.8263 50.048 95.3542 43.16L 98.9783 43.16L 98.9783 56L 103.418 56L 103.418 39.2L 91.2982 39.2ZM 111.024 56L 111.024 49.52L 113.112 49.52L 117.192 56L 122.112 56L 116.592 47.384L 121.872 39.2L 116.952 39.2L 113.136 45.56L 111.024 45.56L 111.024 39.2L 106.584 39.2L 106.584 56L 111.024 56ZM 138.649 56L 138.649 39.2L 134.449 39.2L 127.873 48.848C 127.945 48.056 127.969 47 127.969 46.064L 127.969 39.2L 123.529 39.2L 123.529 56L 127.729 56L 134.305 46.376C 134.233 47.168 134.209 48.224 134.209 49.136L 134.209 56L 138.649 56Z"/>
</defs>
</svg>
